<svg xmlns="http://www.w3.org/2000/svg" viewBox="0 0 900 650"><rect width="900" height="650" fill="#e7ece4"/><g transform="translate(120 170)" fill="#aa7848" stroke="#624029" stroke-width="7"><path d="m0 105 465-88 250 128-475 100Z"/><path d="m0 105 0 72 240 134v-66Z" fill="#8b5e3a"/><path d="m240 245 475-100v77l-475 89Z" fill="#6c482f"/><path d="m30 194 76 42v84l-76-42Zm280 36 78-17v84l-78 18Zm322-68 61-13v82l-61 14Z" fill="#493124"/><path d="m70 92 465-88M175 135 640 47M280 180 695 102" fill="none"/></g><path d="M150 125h590M150 110v30M740 110v30" stroke="#df8a28" stroke-width="5"/><text x="445" y="100" text-anchor="middle" fill="#df8a28" font-family="Arial" font-weight="700" font-size="24">MEDIDA PERSONALIZABLE</text><text x="450" y="570" text-anchor="middle" fill="#365f3d" font-family="Arial" font-weight="700" font-size="26">PALLET A MEDIDA · FOTO PROVISIONAL</text></svg>
