<svg xmlns="http://www.w3.org/2000/svg" viewBox="0 0 900 650"><rect width="900" height="650" fill="#f5f1e8"/><g transform="translate(145 100)" stroke="#654127" stroke-width="7"><path d="m0 325 390-90 255 137-400 98Z" fill="#a87342"/><path d="m0 325v65l245 140v-60" fill="#865838"/><path d="m245 470 400-98v69l-400 89" fill="#68452f"/><path d="m38 310 0-118 390-82 205 108v120" fill="none"/><path d="m38 192 207 112 388-86M38 192l390-82M245 304v166" fill="none"/><path d="m38 192 0-96 390-76 205 102v96" fill="none" stroke="#b78351"/><path d="m38 96 207 104 388-78M245 200v104" fill="none" stroke="#b78351"/><circle cx="41" cy="193" r="10" fill="#df8a28"/><circle cx="632" cy="218" r="10" fill="#df8a28"/></g><text x="450" y="600" text-anchor="middle" fill="#365f3d" font-family="Arial" font-weight="700" font-size="26">PALLET + COLLARES · FOTO PROVISIONAL</text></svg>
