<svg xmlns="http://www.w3.org/2000/svg" viewBox="0 0 900 650"><rect width="900" height="650" fill="#e8efe6"/><g transform="translate(135 150)" fill="#b78351" stroke="#6d472c" stroke-width="7"><path d="m0 125 410-95 255 140-420 104Z"/><path d="m0 125 0 83 245 142v-76Z" fill="#94643b"/><path d="m245 274 420-104v88L245 350Z" fill="#765034"/><path d="m30 225 76 44v90l-76-44Zm260 38 78-19v92l-78 19Zm285-70 66-16v91l-66 16Z" fill="#4f3525"/><path d="m60 110 410-95M150 160 560 65M235 212 645 117" fill="none"/></g><text x="450" y="570" text-anchor="middle" fill="#365f3d" font-family="Arial" font-weight="700" font-size="26">PALLET ESTÁNDAR · FOTO PROVISIONAL</text></svg>
